<svg xmlns="http://www.w3.org/2000/svg" viewBox="0 0 512 512">
<defs><linearGradient id="g" x1="0" y1="0" x2="1" y2="1"><stop stop-color="#0758d8"/><stop offset="1" stop-color="#12a6db"/></linearGradient></defs>
<rect width="512" height="512" rx="112" fill="url(#g)"/>
<circle cx="256" cy="170" r="62" fill="#fff" opacity=".98"/>
<path d="M128 240c40 0 40 34 80 34s40-34 80-34 40 34 80 34 40-34 80-34v54c-40 0-40 34-80 34s-40-34-80-34-40 34-80 34-40-34-80-34z" fill="#fff"/>
<path d="M88 344c42 0 42 32 84 32s42-32 84-32 42 32 84 32 42-32 84-32v45c-42 0-42 32-84 32s-42-32-84-32-42 32-84 32-42-32-84-32z" fill="#bff3ff"/>
</svg>